<svg width="128" height="128" viewBox="0 0 128 128" fill="none" xmlns="http://www.w3.org/2000/svg">
<ellipse cx="64.3016" cy="58.5563" rx="54.3016" ry="54.5563" fill="#C9E6D6"/>
<path d="M60.6 124L53 112H72L60.6 124Z" fill="#C9E6D6" stroke="#C9E6D6" stroke-width="1.07697"/>
<path d="M64.7422 96.998C64.7607 96.9965 64.776 96.9918 64.7891 96.9893C64.7953 96.9761 64.8043 96.9608 64.8125 96.9414C64.9299 96.6624 65.0758 96.1263 65.3623 94.9521L65.3633 94.9463C66.4752 90.4928 68.2797 86.3705 70.8018 82.4941C72.84 79.3623 74.7747 76.9881 79.3867 71.9854V71.9844C80.8001 70.4313 82.3871 68.6907 82.9062 68.0967L82.9072 68.0947C86.9587 63.4758 89.1767 59.354 90.1729 54.7871L90.1738 54.7812C90.44 53.5913 90.4717 53.0887 90.4717 49.9775C90.4717 46.913 90.4265 46.3489 90.1709 45.1045C88.5427 37.409 84.066 31.1853 77.3965 27.3096C74.9719 25.9162 72.0816 24.8937 69.1104 24.3672C68.3572 24.2377 67.0568 24.1224 65.7627 24.0566C64.4583 23.9904 63.2699 23.9801 62.7168 24.0371H62.7178C58.5861 24.4808 54.8293 25.6664 51.792 27.4805C45.2197 31.4145 40.915 37.4792 39.3008 45.1045L39.2998 45.1084L39.21 45.5459C39.0243 46.5182 39 47.2572 39 49.9775C39 53.0888 39.0327 53.5912 39.2988 54.7812L39.2998 54.79C40.281 59.3525 42.5109 63.4598 46.5654 68.0967C47.084 68.69 48.7295 70.5059 50.2119 72.1279L50.2129 72.127C56.3503 78.7959 58.8448 82.1508 61.165 86.9492C62.5272 89.7617 63.3583 92.0195 64.1084 95.0039V95.0059C64.2598 95.6143 64.4137 96.1868 64.5391 96.6143C64.5837 96.7664 64.6246 96.8953 64.6582 96.999C64.6861 97.001 64.7147 97.0003 64.7422 96.998Z" fill="#EE2C2C" stroke="black" stroke-width="2"/>
<path d="M61.8068 64.4475C61.5859 64.5757 61.3036 64.5001 61.1763 64.2786L52.5293 49.2313C52.402 49.0098 52.478 48.7264 52.6989 48.5982L67.6741 39.9117C67.8951 39.7835 68.1774 39.8592 68.3047 40.0807L76.9516 55.1279C77.0789 55.3494 77.003 55.6329 76.782 55.7611L61.8068 64.4475Z" fill="black"/>
</svg>
